<svg width="60" height="60" viewBox="0 0 60 60" fill="none" xmlns="http://www.w3.org/2000/svg">
<g id="Group 1">
<path id="Vector" d="M45.7849 26.3324C44.9322 27.1903 44.2792 28.2258 43.8724 29.3647C43.4656 30.5039 43.3151 31.7187 43.4314 32.9226L43.3909 32.8821C43.5106 34.2994 43.3194 35.7255 42.8309 37.0613C42.3424 38.3969 41.5684 39.6099 40.5629 40.6156C39.5571 41.6211 38.3442 42.3954 37.0083 42.8836C35.6727 43.3721 34.2465 43.5633 32.8294 43.4436L32.8699 43.4841C31.1748 43.3264 29.4722 43.6952 27.9942 44.5405C26.5164 45.3858 25.3351 46.6663 24.6117 48.2076C23.8884 49.7488 23.6577 51.4755 23.9516 53.1526C24.2457 54.8295 25.0496 56.3751 26.254 57.5784C27.4584 58.7817 29.0046 59.5842 30.6818 59.8765C32.3592 60.169 34.0856 59.9368 35.6262 59.2121C37.1667 58.4871 38.4461 57.305 39.2901 55.8263C40.134 54.3476 40.5015 52.6448 40.3422 50.9496L40.3849 50.9901C40.2652 49.5731 40.4562 48.1468 40.9447 46.811C41.4332 45.4754 42.2074 44.2624 43.2129 43.2567C44.2187 42.2511 45.4317 41.4769 46.7673 40.9887C48.1031 40.5002 49.5291 40.3089 50.9464 40.4286L50.9037 40.3881C52.2883 40.5126 53.6822 40.2855 54.9559 39.728C56.2294 39.1704 57.3418 38.3004 58.1896 37.1985C59.0374 36.0967 59.5936 34.7985 59.806 33.4246C60.0186 32.0505 59.8809 30.6452 59.4057 29.3384C58.9305 28.0318 58.1331 26.8663 57.0876 25.9499C56.042 25.0335 54.782 24.3958 53.4243 24.0961C52.0667 23.7964 50.6553 23.8441 49.321 24.2349C47.9868 24.626 46.7729 25.3473 45.7917 26.3324H45.7849Z" fill="white"/>
<path id="Vector_2" d="M29.1866 38.1784L29.1439 38.1379C30.3483 38.2591 31.5647 38.1113 32.7052 37.705C33.8455 37.2986 34.8814 36.6441 35.7377 35.7884C36.5939 34.9327 37.2495 33.8973 37.6565 32.7572C38.0638 31.6171 38.2125 30.401 38.0921 29.1964L38.1349 29.2369C38.0152 27.8196 38.2064 26.3935 38.6947 25.0577C39.1832 23.7221 39.9574 22.5091 40.9629 21.5034C41.9687 20.4979 43.1816 19.7236 44.5172 19.2354C45.8531 18.7468 47.2791 18.5557 48.6964 18.6754L48.6536 18.6349C50.349 18.7942 52.052 18.4264 53.5307 17.5821C55.0097 16.7378 56.1918 15.4578 56.9163 13.9168C57.6408 12.3759 57.8723 10.649 57.5794 8.97157C57.2864 7.29417 56.4832 5.74801 55.279 4.54395C54.075 3.33991 52.5288 2.53657 50.8514 2.24357C49.1741 1.95055 47.4472 2.1821 45.9062 2.90665C44.3651 3.63117 43.0853 4.81343 42.2409 6.29215C41.3965 7.77085 41.0288 9.47404 41.1881 11.1694L41.1476 11.1266C41.2676 12.5439 41.0768 13.9702 40.5885 15.3061C40.1003 16.642 39.326 17.8552 38.3205 18.861C37.3148 19.8665 36.1016 20.6407 34.7657 21.129C33.4297 21.6172 32.0034 21.808 30.5861 21.6881L30.6266 21.7309C29.4222 21.6096 28.2056 21.7574 27.0653 22.1638C25.925 22.5699 24.8891 23.2246 24.0328 24.0803C23.1764 24.936 22.521 25.9714 22.1138 27.1115C21.7067 28.2516 21.558 29.4677 21.6784 30.6724L21.6379 30.6319C21.7571 32.0489 21.5657 33.475 21.0772 34.8106C20.5885 36.1459 19.8145 37.3589 18.809 38.3644C17.8034 39.37 16.5905 40.144 15.255 40.6327C13.9195 41.1211 12.4935 41.3126 11.0764 41.1934L11.1169 41.2339C9.42156 41.0746 7.71838 41.4422 6.23966 42.2866C4.76096 43.1311 3.5787 44.4109 2.85417 45.9519C2.12963 47.4929 1.89806 49.2198 2.19108 50.8972C2.48409 52.5745 3.28743 54.1207 4.49148 55.3247C5.69554 56.5289 7.2417 57.3322 8.9191 57.6251C10.5965 57.9181 12.3234 57.6865 13.8644 56.962C15.4053 56.2375 16.6853 55.0554 17.5296 53.5767C18.374 52.0978 18.7417 50.3947 18.5824 48.6994L18.6251 48.7399C18.5054 47.3226 18.6967 45.8965 19.1852 44.5607C19.6734 43.2251 20.4476 42.0121 21.4532 41.0064C22.4589 40.0009 23.6719 39.2266 25.0075 38.7384C26.3433 38.2499 27.7694 38.0587 29.1866 38.1784Z" fill="white"/>
<path id="Vector_3" d="M14.1073 33.6632C14.9601 32.8055 15.613 31.77 16.0194 30.6308C16.4259 29.4917 16.5758 28.2767 16.4585 27.0729L16.5013 27.1134C16.3815 25.6959 16.5727 24.2692 17.0614 22.9331C17.5502 21.5971 18.3247 20.3839 19.3309 19.3781C20.3371 18.3724 21.5505 17.5985 22.8868 17.1103C24.223 16.6222 25.6498 16.4316 27.0673 16.5519L27.0245 16.5114C28.7192 16.6702 30.4218 16.3023 31.8998 15.4581C33.3778 14.6138 34.5593 13.3341 35.2836 11.7937C36.0076 10.2532 36.2389 8.52688 35.946 6.85011C35.653 5.17335 34.8498 3.62778 33.6463 2.42416C32.4427 1.22055 30.897 0.417475 29.2203 0.12448C27.5436 -0.168537 25.8172 0.0628076 24.2768 0.786903C22.7362 1.511 21.4567 2.69263 20.6125 4.17066C19.768 5.64868 19.4002 7.35117 19.559 9.04591L19.5185 9.00541C19.6382 10.4226 19.447 11.8488 18.9585 13.1845C18.47 14.5202 17.6961 15.7332 16.6904 16.7388C15.6848 17.7445 14.4718 18.5185 13.1361 19.0069C11.8004 19.4954 10.3742 19.6866 8.95702 19.5669L8.99752 19.6074C7.6128 19.4832 6.21913 19.7107 4.94568 20.2685C3.67222 20.8262 2.56016 21.6965 1.71256 22.7986C0.864965 23.9004 0.30926 25.1987 0.096905 26.5725C-0.115427 27.9466 0.022475 29.3519 0.497833 30.6583C0.97319 31.9649 1.77066 33.1301 2.8163 34.0463C3.86194 34.9628 5.12194 35.6002 6.47955 35.8999C7.83713 36.1994 9.2484 36.1514 10.5826 35.7606C11.9167 35.3696 13.1306 34.6482 14.1118 33.6632H14.1073Z" fill="white"/>
</g>
</svg>
